<svg width="104" height="104" viewBox="0 0 104 104" fill="none" xmlns="http://www.w3.org/2000/svg">
<g id="Background+Shadow" filter="url(#filter0_d_646_495)">
<rect x="20" y="10" width="64" height="64" rx="32" fill="#1E3A8A"/>
<path id="Vector" d="M52.25 26C49.0361 26 45.8943 26.953 43.222 28.7386C40.5497 30.5242 38.4669 33.0621 37.237 36.0314C36.007 39.0007 35.6852 42.268 36.3122 45.4202C36.9393 48.5724 38.4869 51.4679 40.7595 53.7405C43.0321 56.0131 45.9276 57.5607 49.0798 58.1878C52.232 58.8148 55.4993 58.493 58.4686 57.263C61.4379 56.0331 63.9758 53.9503 65.7614 51.278C67.547 48.6057 68.5 45.4639 68.5 42.25C68.4955 37.9416 66.7819 33.811 63.7355 30.7645C60.689 27.7181 56.5584 26.0045 52.25 26ZM66 42.25C66.0014 44.014 65.6618 45.7617 65 47.3969L58.0156 43.1016C57.7187 42.9183 57.3865 42.7996 57.0406 42.7531L53.475 42.2719C52.9837 42.2078 52.4844 42.2902 52.0397 42.5086C51.5949 42.7271 51.2246 43.072 50.975 43.5H49.6125L49.0188 42.2719C48.8546 41.9299 48.6144 41.63 48.3165 41.3952C48.0186 41.1604 47.6709 40.9969 47.3 40.9172L46.05 40.6469L47.2719 38.5H49.8828C50.3053 38.4992 50.7208 38.3917 51.0906 38.1875L53.0047 37.1312C53.1729 37.0375 53.3301 36.9254 53.4734 36.7969L57.6781 32.9938C58.0997 32.616 58.3799 32.1058 58.4725 31.5473C58.5651 30.9888 58.4646 30.4155 58.1875 29.9219L58.1313 29.8203C60.4841 30.9359 62.4722 32.6959 63.865 34.896C65.2578 37.0961 65.9981 39.6461 66 42.25ZM54.6422 28.7094L56 31.1406L51.7953 34.9437L49.8828 36H47.2719C46.8324 35.9994 46.4005 36.1146 46.0198 36.334C45.639 36.5535 45.3229 36.8694 45.1031 37.25L43.7391 39.6297L42.1531 35.4047L43.8625 31.3625C45.3755 30.1934 47.1161 29.3533 48.9726 28.8959C50.8292 28.4385 52.7608 28.3739 54.6438 28.7062L54.6422 28.7094ZM38.5 42.25C38.4979 40.2063 38.9539 38.1881 39.8344 36.3438L41.6063 41.0734C41.7539 41.465 41.9975 41.8133 42.3147 42.0863C42.632 42.3593 43.0126 42.5483 43.4219 42.6359L46.7703 43.3563L47.3656 44.5938C47.5722 45.0146 47.8924 45.3694 48.29 45.6179C48.6876 45.8664 49.1468 45.9987 49.6156 46H49.8469L48.7172 48.5359C48.5181 48.9825 48.4544 49.4776 48.5338 49.96C48.6132 50.4423 48.8324 50.8909 49.1641 51.25L49.1859 51.2719L52.25 54.4281L51.9469 55.9906C48.356 55.9071 44.9399 54.4234 42.4277 51.8563C39.9155 49.2892 38.506 45.8419 38.5 42.25ZM54.5281 55.8094L54.7047 54.9016C54.7773 54.5159 54.7585 54.1186 54.65 53.7414C54.5415 53.3643 54.3462 53.0178 54.0797 52.7297C54.072 52.7228 54.0647 52.7155 54.0578 52.7078L51 49.5531L53.1406 44.75L56.7063 45.2313L63.85 49.625C62.815 51.2504 61.4506 52.6406 59.845 53.7058C58.2393 54.7711 56.428 55.4877 54.5281 55.8094Z" fill="white"/>
</g>
<defs>
<filter id="filter0_d_646_495" x="0" y="0" width="104" height="104" filterUnits="userSpaceOnUse" color-interpolation-filters="sRGB">
<feFlood flood-opacity="0" result="BackgroundImageFix"/>
<feColorMatrix in="SourceAlpha" type="matrix" values="0 0 0 0 0 0 0 0 0 0 0 0 0 0 0 0 0 0 127 0" result="hardAlpha"/>
<feMorphology radius="10" operator="erode" in="SourceAlpha" result="effect1_dropShadow_646_495"/>
<feOffset dy="10"/>
<feGaussianBlur stdDeviation="15"/>
<feComposite in2="hardAlpha" operator="out"/>
<feColorMatrix type="matrix" values="0 0 0 0 0.168627 0 0 0 0 0.168627 0 0 0 0 0.168627 0 0 0 0.08 0"/>
<feBlend mode="normal" in2="BackgroundImageFix" result="effect1_dropShadow_646_495"/>
<feBlend mode="normal" in="SourceGraphic" in2="effect1_dropShadow_646_495" result="shape"/>
</filter>
</defs>
</svg>
