<svg width="104" height="104" viewBox="0 0 104 104" fill="none" xmlns="http://www.w3.org/2000/svg">
<g id="Background+Shadow" filter="url(#filter0_d_646_484)">
<rect x="20" y="10" width="64" height="64" rx="32" fill="#1E3A8A"/>
<path id="Vector" d="M61.8294 42.2167L54.4939 39.5061L51.7918 32.1649C51.6318 31.7302 51.3423 31.355 50.9623 31.09C50.5824 30.825 50.1303 30.6829 49.6671 30.6829C49.2039 30.6829 48.7518 30.825 48.3718 31.09C47.9919 31.355 47.7024 31.7302 47.5424 32.1649L44.8232 39.5061L37.482 42.2082C37.0473 42.3682 36.6721 42.6577 36.4071 43.0377C36.1421 43.4176 36 43.8697 36 44.3329C36 44.7961 36.1421 45.2482 36.4071 45.6282C36.6721 46.0081 37.0473 46.2976 37.482 46.4576L44.8232 49.1768L47.5253 56.518C47.6853 56.9527 47.9748 57.3279 48.3548 57.5929C48.7347 57.8579 49.1868 58 49.65 58C50.1133 58 50.5653 57.8579 50.9453 57.5929C51.3252 57.3279 51.6147 56.9527 51.7747 56.518L54.4939 49.1768L61.8351 46.4747C62.2698 46.3147 62.645 46.0252 62.91 45.6452C63.175 45.2653 63.3171 44.8132 63.3171 44.35C63.3171 43.8867 63.175 43.4347 62.91 43.0547C62.645 42.6748 62.2698 42.3853 61.8351 42.2253L61.8294 42.2167ZM53.214 47.2171C53.0595 47.274 52.9193 47.3637 52.8029 47.4801C52.6865 47.5965 52.5968 47.7367 52.5399 47.8912L49.6586 55.6974L46.7829 47.8969C46.7261 47.7408 46.6358 47.5991 46.5184 47.4816C46.4009 47.3642 46.2592 47.2739 46.1032 47.2171L38.3026 44.3414L46.1032 41.4658C46.2592 41.409 46.4009 41.3187 46.5184 41.2013C46.6358 41.0838 46.7261 40.9421 46.7829 40.786L49.6586 32.9855L52.5342 40.786C52.5911 40.9405 52.6808 41.0807 52.7972 41.1971C52.9136 41.3135 53.0539 41.4032 53.2083 41.4601L61.0145 44.3414L53.214 47.2171ZM54.2095 29.5509C54.2095 29.2492 54.3294 28.9598 54.5427 28.7464C54.7561 28.5331 55.0455 28.4132 55.3472 28.4132H57.6227V26.1377C57.6227 25.836 57.7425 25.5466 57.9559 25.3332C58.1693 25.1199 58.4587 25 58.7604 25C59.0622 25 59.3515 25.1199 59.5649 25.3332C59.7783 25.5466 59.8981 25.836 59.8981 26.1377V28.4132H62.1736C62.4754 28.4132 62.7647 28.5331 62.9781 28.7464C63.1915 28.9598 63.3113 29.2492 63.3113 29.5509C63.3113 29.8527 63.1915 30.1421 62.9781 30.3554C62.7647 30.5688 62.4754 30.6887 62.1736 30.6887H59.8981V32.9641C59.8981 33.2659 59.7783 33.5553 59.5649 33.7686C59.3515 33.982 59.0622 34.1019 58.7604 34.1019C58.4587 34.1019 58.1693 33.982 57.9559 33.7686C57.7425 33.5553 57.6227 33.2659 57.6227 32.9641V30.6887H55.3472C55.0455 30.6887 54.7561 30.5688 54.5427 30.3554C54.3294 30.1421 54.2095 29.8527 54.2095 29.5509ZM69 36.3773C69 36.6791 68.8801 36.9684 68.6668 37.1818C68.4534 37.3952 68.164 37.515 67.8623 37.515H66.7245V38.6528C66.7245 38.9545 66.6047 39.2439 66.3913 39.4573C66.1779 39.6706 65.8885 39.7905 65.5868 39.7905C65.2851 39.7905 64.9957 39.6706 64.7823 39.4573C64.5689 39.2439 64.4491 38.9545 64.4491 38.6528V37.515H63.3113C63.0096 37.515 62.7202 37.3952 62.5068 37.1818C62.2935 36.9684 62.1736 36.6791 62.1736 36.3773C62.1736 36.0756 62.2935 35.7862 62.5068 35.5728C62.7202 35.3595 63.0096 35.2396 63.3113 35.2396H64.4491V34.1019C64.4491 33.8001 64.5689 33.5107 64.7823 33.2974C64.9957 33.084 65.2851 32.9641 65.5868 32.9641C65.8885 32.9641 66.1779 33.084 66.3913 33.2974C66.6047 33.5107 66.7245 33.8001 66.7245 34.1019V35.2396H67.8623C68.164 35.2396 68.4534 35.3595 68.6668 35.5728C68.8801 35.7862 69 36.0756 69 36.3773Z" fill="white"/>
</g>
<defs>
<filter id="filter0_d_646_484" x="0" y="0" width="104" height="104" filterUnits="userSpaceOnUse" color-interpolation-filters="sRGB">
<feFlood flood-opacity="0" result="BackgroundImageFix"/>
<feColorMatrix in="SourceAlpha" type="matrix" values="0 0 0 0 0 0 0 0 0 0 0 0 0 0 0 0 0 0 127 0" result="hardAlpha"/>
<feMorphology radius="10" operator="erode" in="SourceAlpha" result="effect1_dropShadow_646_484"/>
<feOffset dy="10"/>
<feGaussianBlur stdDeviation="15"/>
<feComposite in2="hardAlpha" operator="out"/>
<feColorMatrix type="matrix" values="0 0 0 0 0.168627 0 0 0 0 0.168627 0 0 0 0 0.168627 0 0 0 0.08 0"/>
<feBlend mode="normal" in2="BackgroundImageFix" result="effect1_dropShadow_646_484"/>
<feBlend mode="normal" in="SourceGraphic" in2="effect1_dropShadow_646_484" result="shape"/>
</filter>
</defs>
</svg>
