<svg width="104" height="104" viewBox="0 0 104 104" fill="none" xmlns="http://www.w3.org/2000/svg">
<g id="Background+Shadow" filter="url(#filter0_d_646_472)">
<rect x="20" y="10" width="64" height="64" rx="32" fill="#1E3A8A"/>
<path id="Vector" d="M52.25 26C49.0361 26 45.8943 26.953 43.222 28.7386C40.5497 30.5242 38.4669 33.0621 37.237 36.0314C36.007 39.0007 35.6852 42.268 36.3122 45.4202C36.9393 48.5724 38.4869 51.4679 40.7595 53.7405C43.0321 56.0131 45.9276 57.5607 49.0798 58.1878C52.232 58.8148 55.4993 58.493 58.4686 57.263C61.4379 56.0331 63.9758 53.9503 65.7614 51.278C67.547 48.6057 68.5 45.4639 68.5 42.25C68.4955 37.9416 66.7819 33.811 63.7355 30.7645C60.689 27.7181 56.5584 26.0045 52.25 26ZM52.25 56C49.5305 56 46.8721 55.1936 44.6109 53.6827C42.3497 52.1718 40.5874 50.0244 39.5467 47.5119C38.506 44.9994 38.2337 42.2347 38.7642 39.5675C39.2948 36.9003 40.6043 34.4503 42.5273 32.5273C44.4503 30.6043 46.9003 29.2947 49.5675 28.7642C52.2348 28.2337 54.9994 28.506 57.5119 29.5467C60.0244 30.5874 62.1718 32.3497 63.6827 34.6109C65.1936 36.8721 66 39.5305 66 42.25C65.9959 45.8955 64.5459 49.3904 61.9682 51.9682C59.3904 54.5459 55.8955 55.9959 52.25 56ZM62.25 42.25C62.25 42.5815 62.1183 42.8995 61.8839 43.1339C61.6495 43.3683 61.3315 43.5 61 43.5H52.25C51.9185 43.5 51.6005 43.3683 51.3661 43.1339C51.1317 42.8995 51 42.5815 51 42.25V33.5C51 33.1685 51.1317 32.8505 51.3661 32.6161C51.6005 32.3817 51.9185 32.25 52.25 32.25C52.5815 32.25 52.8995 32.3817 53.1339 32.6161C53.3683 32.8505 53.5 33.1685 53.5 33.5V41H61C61.3315 41 61.6495 41.1317 61.8839 41.3661C62.1183 41.6005 62.25 41.9185 62.25 42.25Z" fill="white"/>
</g>
<defs>
<filter id="filter0_d_646_472" x="0" y="0" width="104" height="104" filterUnits="userSpaceOnUse" color-interpolation-filters="sRGB">
<feFlood flood-opacity="0" result="BackgroundImageFix"/>
<feColorMatrix in="SourceAlpha" type="matrix" values="0 0 0 0 0 0 0 0 0 0 0 0 0 0 0 0 0 0 127 0" result="hardAlpha"/>
<feMorphology radius="10" operator="erode" in="SourceAlpha" result="effect1_dropShadow_646_472"/>
<feOffset dy="10"/>
<feGaussianBlur stdDeviation="15"/>
<feComposite in2="hardAlpha" operator="out"/>
<feColorMatrix type="matrix" values="0 0 0 0 0.168627 0 0 0 0 0.168627 0 0 0 0 0.168627 0 0 0 0.08 0"/>
<feBlend mode="normal" in2="BackgroundImageFix" result="effect1_dropShadow_646_472"/>
<feBlend mode="normal" in="SourceGraphic" in2="effect1_dropShadow_646_472" result="shape"/>
</filter>
</defs>
</svg>
