<svg width="104" height="104" viewBox="0 0 104 104" fill="none" xmlns="http://www.w3.org/2000/svg">
<g id="Background+Shadow" filter="url(#filter0_d_646_506)">
<rect x="20" y="10" width="64" height="64" rx="32" fill="#1E3A8A"/>
<path id="Vector" d="M67.7903 38.4885L64.5999 32.1054C64.4823 31.8705 64.3197 31.661 64.1212 31.4889C63.9227 31.3168 63.6922 31.1855 63.443 31.1025C63.1937 31.0195 62.9306 30.9864 62.6686 31.0052C62.4065 31.0239 62.1507 31.094 61.9158 31.2116L58.8067 32.7655L52.2572 31.0328C52.0891 30.9891 51.9126 30.9891 51.7446 31.0328L45.1951 32.7655L42.0859 31.2116C41.851 31.094 41.5952 31.0239 41.3332 31.0052C41.0712 30.9864 40.808 31.0195 40.5588 31.1025C40.3095 31.1855 40.0791 31.3168 39.8806 31.4889C39.6821 31.661 39.5194 31.8705 39.4019 32.1054L36.2115 38.4873C36.0939 38.7222 36.0238 38.978 36.0051 39.24C35.9864 39.5021 36.0195 39.7652 36.1025 40.0144C36.1855 40.2637 36.3168 40.4941 36.4888 40.6926C36.6609 40.8911 36.8704 41.0538 37.1054 41.1713L40.4808 42.8602L47.4178 47.8145C47.52 47.8872 47.6349 47.9402 47.7566 47.9707L55.7576 49.9709C55.9251 50.013 56.1007 50.0109 56.2672 49.9649C56.4337 49.9189 56.5855 49.8305 56.7077 49.7084L63.5923 42.8227L66.8951 41.1713C67.3693 40.934 67.7298 40.518 67.8974 40.015C68.0651 39.5119 68.0261 38.9629 67.789 38.4885H67.7903ZM60.9282 42.6602L56.6264 39.2149C56.4337 39.0605 56.1907 38.9829 55.9442 38.997C55.6977 39.0111 55.4652 39.1159 55.2913 39.2911C53.0648 41.5339 50.5832 41.2501 49.0005 40.25L54.4062 34.9994H58.3829L61.7845 41.8014L60.9282 42.6602ZM41.1908 32.9992L43.7499 34.2769L40.5533 40.6588L37.9992 39.3824L41.1908 32.9992ZM55.6926 47.892L48.4279 46.0768L42.2772 41.6839L45.7776 34.6832L52.0009 33.0342L53.226 33.358L47.6004 38.8186L47.5903 38.8298C47.3786 39.0416 47.2171 39.2982 47.1177 39.5807C47.0184 39.8633 46.9838 40.1645 47.0164 40.4622C47.049 40.7599 47.1481 41.0464 47.3063 41.3007C47.4645 41.555 47.6778 41.7705 47.9304 41.9314C50.5007 43.5728 53.6023 43.3065 56.0451 41.3063L59.5018 44.0829L55.6926 47.892ZM63.4435 40.6575L60.2531 34.2819L62.8109 32.9992L66.0025 39.3824L63.4435 40.6575ZM52.4734 52.2424C52.4194 52.4586 52.2947 52.6505 52.1192 52.7877C51.9437 52.925 51.7274 52.9997 51.5046 53C51.4224 52.9999 51.3405 52.9898 51.2608 52.97L46.0514 51.6674C45.9296 51.6373 45.8146 51.5843 45.7126 51.5111L42.4185 49.1584C42.2159 48.9993 42.0825 48.7683 42.0461 48.5134C42.0096 48.2585 42.0729 47.9993 42.2227 47.7899C42.3725 47.5804 42.5974 47.4369 42.8504 47.389C43.1035 47.3412 43.3652 47.3929 43.5811 47.5332L46.7202 49.7759L51.7508 51.0311C52.0081 51.0954 52.2293 51.2593 52.3657 51.4867C52.5022 51.7141 52.5427 51.9864 52.4784 52.2437L52.4734 52.2424Z" fill="white"/>
</g>
<defs>
<filter id="filter0_d_646_506" x="0" y="0" width="104" height="104" filterUnits="userSpaceOnUse" color-interpolation-filters="sRGB">
<feFlood flood-opacity="0" result="BackgroundImageFix"/>
<feColorMatrix in="SourceAlpha" type="matrix" values="0 0 0 0 0 0 0 0 0 0 0 0 0 0 0 0 0 0 127 0" result="hardAlpha"/>
<feMorphology radius="10" operator="erode" in="SourceAlpha" result="effect1_dropShadow_646_506"/>
<feOffset dy="10"/>
<feGaussianBlur stdDeviation="15"/>
<feComposite in2="hardAlpha" operator="out"/>
<feColorMatrix type="matrix" values="0 0 0 0 0.168627 0 0 0 0 0.168627 0 0 0 0 0.168627 0 0 0 0.08 0"/>
<feBlend mode="normal" in2="BackgroundImageFix" result="effect1_dropShadow_646_506"/>
<feBlend mode="normal" in="SourceGraphic" in2="effect1_dropShadow_646_506" result="shape"/>
</filter>
</defs>
</svg>
