<svg width="32" height="32" viewBox="0 0 32 32" fill="none" xmlns="http://www.w3.org/2000/svg">
<path d="M30 15H28V7H13V5H28C28.5304 5 29.0391 5.21071 29.4142 5.58579C29.7893 5.96086 30 6.46957 30 7V15Z" fill="white"/>
<path d="M25 20H23V12H8V10H23C23.5304 10 24.0391 10.2107 24.4142 10.5858C24.7893 10.9609 25 11.4696 25 12V20Z" fill="white"/>
<path d="M18 27H4C3.46957 27 2.96086 26.7893 2.58579 26.4142C2.21071 26.0391 2 25.5304 2 25V17C2 16.4696 2.21071 15.9609 2.58579 15.5858C2.96086 15.2107 3.46957 15 4 15H18C18.5304 15 19.0391 15.2107 19.4142 15.5858C19.7893 15.9609 20 16.4696 20 17V25C20 25.5304 19.7893 26.0391 19.4142 26.4142C19.0391 26.7893 18.5304 27 18 27ZM4 17V25H18.001L18 17H4Z" fill="white"/>
</svg>
