<svg width="32" height="32" viewBox="0 0 32 32" fill="none" xmlns="http://www.w3.org/2000/svg">
<path d="M16 2C13.2311 2 10.5243 2.82109 8.22202 4.35943C5.91973 5.89777 4.12532 8.08427 3.06569 10.6424C2.00607 13.2006 1.72882 16.0155 2.26901 18.7313C2.80921 21.447 4.14258 23.9416 6.10051 25.8995C8.05845 27.8574 10.553 29.1908 13.2687 29.731C15.9845 30.2712 18.7994 29.9939 21.3576 28.9343C23.9157 27.8747 26.1022 26.0803 27.6406 23.778C29.1789 21.4757 30 18.7689 30 16C29.9958 12.2883 28.5194 8.72977 25.8948 6.10518C23.2702 3.48059 19.7117 2.00423 16 2ZM21 5.106C22.0591 5.59396 23.0414 6.23368 23.916 7.005L23.503 8H21V5.106ZM13.378 27.703C11.214 27.2222 9.22598 26.1502 7.63519 24.6064C6.0444 23.0626 4.9133 21.1076 4.36784 18.959C3.82237 16.8104 3.88395 14.5526 4.54571 12.4369C5.20746 10.3213 6.44344 8.4308 8.11601 6.976L9.46501 9H12.807L11.307 13H7.28001L5.89801 17.148L8.46501 21H13.465L14.897 23.148L13.378 27.703ZM16 28C15.797 28 15.598 27.98 15.398 27.97L16.794 23.78C16.891 23.4913 16.9204 23.1842 16.88 22.8824C16.8396 22.5806 16.7305 22.292 16.561 22.039L15.129 19.891C14.9464 19.617 14.699 19.3923 14.4087 19.2369C14.1184 19.0814 13.7943 19.0001 13.465 19H9.53501L8.10301 16.852L8.72101 15H11V17H13V14.181L15.936 6.351L14.064 5.649L13.557 7H10.535L9.72801 5.79C11.0961 4.93606 12.6247 4.37161 14.2194 4.13151C15.8141 3.8914 17.4411 3.98074 19 4.394V8C19.0008 8.53019 19.2118 9.03844 19.5867 9.41334C19.9616 9.78824 20.4698 9.99921 21 10H23.586C24.1164 9.99989 24.625 9.7891 25 9.414L25.14 9.274L25.422 8.594C26.2291 9.61965 26.8634 10.7701 27.3 12H22.599C22.1261 11.9979 21.6679 12.1644 21.3065 12.4695C20.9451 12.7746 20.7042 13.1984 20.627 13.665L20.03 17.106C19.9577 17.5136 20.0143 17.9336 20.192 18.3075C20.3696 18.6814 20.6594 18.9906 21.021 19.192L23.186 20.656L24.644 24.302C23.5277 25.4704 22.1863 26.4004 20.7006 27.036C19.215 27.6716 17.6159 27.9995 16 28ZM24.815 19.344L22.1 17.509L22 17.449L22.599 14H27.819C28.3432 16.9505 27.7192 19.9897 26.075 22.495L24.815 19.344Z" fill="white"/>
</svg>
