<svg width="25" height="24" viewBox="0 0 25 24" fill="none" xmlns="http://www.w3.org/2000/svg">
<path d="M10.8065 0.898426C11.1956 -0.299278 12.8901 -0.299276 13.2792 0.898428L15.2309 6.90522C15.405 7.44085 15.9041 7.8035 16.4673 7.8035H22.7832C24.0426 7.8035 24.5662 9.415 23.5474 10.1552L18.4377 13.8676C17.982 14.1987 17.7914 14.7854 17.9654 15.3211L19.9171 21.3279C20.3063 22.5256 18.9355 23.5215 17.9167 22.7813L12.807 19.0689C12.3513 18.7379 11.7344 18.7379 11.2787 19.0689L6.16904 22.7813C5.15021 23.5215 3.77939 22.5256 4.16855 21.3279L6.12027 15.3211C6.29431 14.7854 6.10365 14.1987 5.64802 13.8676L0.538337 10.1552C-0.48049 9.415 0.0431194 7.8035 1.30246 7.8035H7.61837C8.18157 7.8035 8.68071 7.44085 8.85475 6.90522L10.8065 0.898426Z" fill="#1E3A8A"/>
</svg>
